name C:\Users\u0101727\Documents\MyRepositories\upper-imu-dc\Results\main_tracking\Case_43\FLX01_linearAccelerations_bodyFrame.mot
datacolumns 4
datarows 47
range 3.51000000 3.97000000
endheader 
time	radius_imu_x	radius_imu_y	radius_imu_z	
          3.51000000	         -0.48623746	         -9.45044173	          2.44488827	
          3.52000000	         -0.50944956	         -9.45035090	          2.44237212	
          3.53000000	         -0.52897212	         -9.44988635	          2.44218516	
          3.54000000	         -0.54455229	         -9.44906954	          2.44435701	
          3.55000000	         -0.55603208	         -9.44793494	          2.44876975	
          3.56000000	         -0.56332975	         -9.44652946	          2.45515286	
          3.57000000	         -0.56641624	         -9.44490929	          2.46309566	
          3.58000000	         -0.56529442	         -9.44313255	          2.47207850	
          3.59000000	         -0.55998676	         -9.44124827	          2.48151867	
          3.60000000	         -0.55052892	         -9.43928632	          2.49082529	
          3.61000000	         -0.53696423	         -9.43725296	          2.49945351	
          3.62000000	         -0.51933924	         -9.43513217	          2.50694671	
          3.63000000	         -0.49770419	         -9.43288932	          2.51296015	
          3.64000000	         -0.47211927	         -9.43047412	          2.51726991	
          3.65000000	         -0.44266261	         -9.42782413	          2.51977477	
          3.66000000	         -0.40943585	         -9.42486992	          2.52049123	
          3.67000000	         -0.37257287	         -9.42154004	          2.51953776	
          3.68000000	         -0.33225814	         -9.41776391	          2.51710624	
          3.69000000	         -0.28875125	         -9.41347302	          2.51342629	
          3.70000000	         -0.24240650	         -9.40860262	          2.50873520	
          3.71000000	         -0.19367620	         -9.40309491	          2.50326596	
          3.72000000	         -0.14309740	         -9.39690318	          2.49725576	
          3.73000000	         -0.09127017	         -9.38999326	          2.49096197	
          3.74000000	         -0.03883783	         -9.38233937	          2.48467056	
          3.75000000	          0.01353046	         -9.37391593	          2.47869278	
          3.76000000	          0.06515741	         -9.36468951	          2.47335490	
          3.77000000	          0.11537203	         -9.35461223	          2.46898433	
          3.78000000	          0.16351738	         -9.34361685	          2.46589186	
          3.79000000	          0.20895533	         -9.33161644	          2.46435610	
          3.80000000	          0.25107574	         -9.31851254	          2.46461850	
          3.81000000	          0.28931341	         -9.30421094	          2.46688782	
          3.82000000	          0.32316543	         -9.28863915	          2.47134206	
          3.83000000	          0.35219975	         -9.27175768	          2.47811615	
          3.84000000	          0.37605167	         -9.25356190	          2.48727648	
          3.85000000	          0.39441560	         -9.23407656	          2.49879448	
          3.86000000	          0.40704144	         -9.21334695	          2.51253246	
          3.87000000	          0.41373238	         -9.19142988	          2.52824509	
          3.88000000	          0.41433613	         -9.16838540	          2.54559033	
          3.89000000	          0.40872814	         -9.14426841	          2.56414712	
          3.90000000	          0.39680248	         -9.11912148	          2.58344104	
          3.91000000	          0.37848027	         -9.09297171	          2.60297591	
          3.92000000	          0.35372138	         -9.06583114	          2.62226385	
          3.93000000	          0.32251636	         -9.03769452	          2.64084815	
          3.94000000	          0.28485595	         -9.00853180	          2.65831926	
          3.95000000	          0.24070160	         -8.97828274	          2.67433146	
          3.96000000	          0.18997761	         -8.94686265	          2.68862743	
          3.97000000	          0.13257934	         -8.91417658	          2.70106958	
